<?xml version="1.0" encoding="utf-8"?>
<svg viewBox="-1256.87 -262.353 949.51 539.773" xmlns="http://www.w3.org/2000/svg">
  <g transform="matrix(1.333333, 0, 0, -1.333333, -1256.870239, 277.420471)" id="g10">
    <g transform="scale(0.1)" id="g12">
      <path id="path14" style="fill-opacity: 1; fill-rule: nonzero; stroke: none;" d="m 2450.61,4048.3 c 20.57,-3.09 41.13,-6.23 61.72,-9.26 181.1,-26.66 337.57,-104.14 471.44,-228.35 8.96,-8.31 18.07,-16.54 27.7,-24.05 97.93,-76.36 176.86,-168.91 235.05,-278.58 8.83,-16.64 18.63,-21.67 36.46,-21.4 62.08,0.97 124.18,0.67 186.28,0.22 22.47,-0.16 44.92,-2.09 69.54,-3.33 5.86,28.94 12.08,58.68 17.87,88.51 16.48,84.91 32.77,169.86 49.16,254.79 12.28,63.66 46.96,96.84 111.27,102.47 84.47,7.39 169.11,12.88 253.69,19.17 62.77,4.67 125.54,9.41 188.33,13.9 17.43,1.25 34.94,2.66 52.39,2.42 69.23,-0.92 120.7,-63.1 108.24,-131.33 -3.85,-21.09 -10.89,-41.61 -13.43,-63.84 5.33,6.71 11.56,12.88 15.83,20.21 23.72,40.7 48.08,81.08 70.06,122.72 21.85,41.39 53.65,66.19 101,68.02 148.54,5.72 297.08,11.31 445.64,16.32 65.49,2.21 105.75,-28.47 122.5,-91.18 0.89,-3.33 1.94,-6.63 4.57,-15.57 9.69,17.59 16.26,32.12 25.17,45.03 10.79,15.65 21.92,31.76 35.88,44.36 20.23,18.25 46.01,23.7 73.21,23.2 190.58,-3.52 381.17,-6.82 571.76,-10.16 45.46,-0.79 90.93,-1.09 136.38,-2.26 47.89,-1.22 93.44,-12.46 135.56,-35.54 55.62,-30.47 85.62,-76.96 81.13,-141.31 -5.35,-76.71 -12.99,-153.27 -19.74,-229.88 -2.68,-30.39 -5.62,-60.75 -8.44,-91.12 1.63,-0.63 3.26,-1.26 4.89,-1.89 3.87,8.11 7.95,16.12 11.57,24.34 56.05,127.14 112.16,254.24 167.95,381.48 17.58,40.09 47.45,64.17 90.5,71.08 11.05,1.78 22.68,1.1 33.95,0.23 105.47,-8.09 210.92,-16.44 316.38,-24.77 65.37,-5.16 131.17,-7.28 195.96,-16.54 59.52,-8.5 114.03,-33.58 159.4,-74.39 44.25,-39.81 55.55,-87.98 31.6,-142.58 -23.16,-52.78 -49.35,-104.24 -74.77,-155.99 -167.99,-342 -335.45,-684.25 -504.64,-1025.65 -46.53,-93.87 -98.77,-184.89 -147.63,-277.62 -46.85,-88.92 -92.37,-178.54 -139.35,-267.39 -7.39,-13.98 -7.08,-25.04 -0.65,-38.87 31.68,-68.15 62.33,-136.77 93.67,-205.08 39.03,-85.04 57.2,-173.93 50.91,-267.57 -4.63,-68.8 -22.99,-134.09 -49.66,-197.33 C 6168.04,873.488 5901.53,553.82 5540.84,312.168 5452.15,252.75 5361.38,197.148 5261.29,158.16 5136.12,109.398 5006.2,81.1289 4872.38,82.4805 4735.69,83.8594 4602.39,65.7891 4469.62,36.9883 c -25.41,-5.5195 -51.91,-6.8164 -78.01,-8.1875 -40.34,-2.1289 -77.31,9.7187 -112.8,28.6992 -88.48,47.332 -167.73,107.461 -242.86,173.301 -38.13,33.418 -75.73,67.508 -112.59,102.328 -94.47,89.242 -204.94,95.961 -319.18,52.5 -30.78,-11.707 -38.71,-31.77 -26.54,-63.309 18.87,-48.84 39.68,-96.941 58.89,-145.648 6.68,-16.942 13.02,-34.442 16.12,-52.274 C 3659.07,87.3984 3644.3,57.6211 3611.31,41.5 3582.59,27.4609 3551.66,16.0391 3520.45,9.30859 3430.12,-10.168 3342.97,0.269531 3261.86,46.75 c -44.73,25.6211 -88.6,52.7617 -133.02,78.93 -68.69,40.461 -140.19,74.609 -216.19,99.5 -50.75,16.621 -92.05,5.539 -128.11,-33.141 -15.4,-16.508 -32.7,-31.738 -51.04,-44.93 -39.46,-28.371 -83.31,-35.14 -129.45,-18.918 -18.85,6.618 -37.54,14.61 -54.88,24.481 -109.36,62.269 -218.32,125.226 -327.4,187.988 -4.54,2.61 -9.02,5.36 -13.39,8.25 -67.75,44.75 -81.78,106.231 -49.88,180.512 0.54,1.25 2.63,1.84 6.68,4.5 0.46,-6.754 0.73,-12.223 1.22,-17.672 1.58,-17.379 2.68,-34.82 4.98,-52.109 5.07,-38.129 26.61,-64.762 61.7,-78.371 34.11,-13.231 69.01,-25.09 104.43,-34.098 64.63,-16.453 130.53,-24.07 197.42,-19.91 45.02,2.797 84.86,18.609 120.2,46.636 37.49,29.743 79.13,50.973 126.53,60.293 62.09,12.2 121.28,0.52 180.41,-18.3 40.63,-12.93 82.18,-23.653 123.98,-32.012 23.67,-4.731 48.82,-4.758 73.06,-3.188 34.17,2.207 52.55,22.829 51.89,56.899 -0.34,17.23 -3.77,34.789 -8.43,51.469 -14.58,52.152 -30.87,103.832 -45.49,155.98 -4.68,16.691 -7.59,34.152 -8.97,51.449 -3.91,49.063 16.95,86.723 57.2,113.41 68.82,45.633 143.68,58.063 222.86,34.352 29.06,-8.699 57.23,-21.57 84.31,-35.461 80.98,-41.539 163.29,-78.848 251.05,-104.73 99.19,-29.258 187.32,-79.977 266.78,-146.868 98.93,-83.273 210.35,-142.972 337.13,-173.703 90.67,-21.976 178.55,-14.828 265.75,14.653 36.53,12.339 60.45,37.597 72.79,73.687 9.51,27.813 11.69,56.613 6.02,85.422 -8.13,41.371 -35.06,67.969 -72.34,83.77 -44.37,18.789 -90.33,32.21 -138.9,36.058 -61.83,4.902 -123.81,9.262 -185.25,17.402 -123.37,16.348 -242.94,49.481 -361.18,87.481 -173.75,55.84 -347.1,112.937 -521.17,167.758 -80.77,25.429 -162.68,47.311 -244.37,69.731 -74.22,20.37 -148.76,18.32 -222.85,-1.4 C 2855.1,993.051 2748.98,950.09 2642.6,907.988 2542.68,868.441 2442.56,829.531 2338.01,803.52 2234.75,777.84 2130.4,764.34 2023.68,772.699 c -65.03,5.102 -129.02,-6.039 -192.93,-16.238 -41.4,-6.609 -82.95,-12.441 -124.07,-20.473 -30.79,-6.019 -60.76,-16.25 -91.54,-22.359 -55.46,-11.02 -111.06,-12 -166.36,2.531 -50.73,13.32 -92.12,42.141 -127.26,79.481 -12.05,12.789 -19.64,30.898 -25.94,47.828 -103.06,276.751 -205.58,553.701 -308.264,830.591 -3.336,9 -6.609,18.1 -10.945,26.63 -46.953,92.36 -73.457,190.89 -83.105,293.4 -5.797,61.6 -5.532,123.82 -6.543,185.79 -1.77,108.41 -2.946,216.84 -3.055,325.26 -0.02,19.68 -5.766,31.27 -22.336,42.52 -263.289,178.73 -525.93,358.42 -789.1328,537.27 -30.7617,20.91 -55.9179,44.5 -64.83592,82.01 -0.89844,3.79 -4.83594,6.86 -7.36328,10.27 0,8.74 0,17.49 0,26.24 2.39844,3.54 6.03516,6.78 7,10.68 10.2656,41.42 37.9375,66.42 74.3828,86.28 151.8942,82.79 303.0312,166.97 454.4922,250.56 56.609,31.24 99.438,26.75 148.918,-15.71 85.605,-73.44 171.074,-147.04 256.629,-220.54 7.742,-6.66 15.664,-13.1 26.308,-21.99 0,10.27 0.348,16.01 -0.05,21.69 -7.676,108.99 -14.547,218.06 -23.535,326.94 -5.067,61.38 27.39,104.66 77.055,126.46 165.54,72.67 330.25,147.23 495.43,220.71 12.63,5.62 26.18,10.17 39.77,12.43 47.26,7.87 89.76,-7.57 129.64,-30.69 42.83,-24.82 70.5,-62.07 82.65,-110.2 4.46,-17.66 7.33,-35.71 11.36,-55.75 6.24,5 11.7,8.89 16.61,13.37 132.93,121.15 287.88,195.9 466.18,221.54 20.62,2.97 41.22,6.04 61.82,9.07 41.98,0 83.97,0 125.95,0"/>
      <path id="path16" style="fill-opacity: 1; fill-rule: nonzero; stroke: none; fill: rgb(255, 201, 6);" d="m 123.07,3190.7 c 161.493,89.24 318.891,176.21 477.879,264.07 165.328,-142.09 330.207,-283.8 500.551,-430.2 0.72,14.52 1.91,22.56 1.38,30.48 -3.78,55.81 -7.82,111.6 -11.94,167.39 -4.38,59.26 -9.01,118.52 -13.4,177.78 -5.04,67.98 -10.19,135.96 -14.72,203.98 -1.16,17.31 -0.17,34.77 -0.17,54.79 166.12,74.21 333.29,148.89 503.84,225.07 0,-18 0.95,-32.36 -0.15,-46.56 -8.31,-107.17 -16.91,-214.32 -25.62,-321.45 -9.77,-120.21 -19.95,-240.38 -29.55,-360.59 -7.86,-98.45 -14.91,-196.95 -22.73,-295.4 -7.74,-97.57 -16.16,-195.09 -23.99,-292.65 -6.16,-76.66 -11.85,-153.36 -17.81,-230.04 -3.51,-45.31 -7.43,-90.58 -10.5,-135.92 -0.88,-12.91 -5.45,-20.92 -18.23,-25.21 -134.01,-45 -267.91,-90.32 -401.88,-135.44 -2.29,-0.77 -5.07,-0.1 -10.24,-0.1 -0.8,7.45 -2.21,14.79 -2.28,22.14 -1.03,98.8 -1.82,197.6 -2.78,296.4 -0.67,69.06 -2.335,138.13 -1.769,207.19 0.164,19.98 -6.5,31.36 -22.856,42.47 -266.078,180.77 -531.703,362.2 -797.417,543.5 -17.243,11.77 -34.387,23.68 -55.618,38.3"/>
      <path id="path18" style="fill-opacity: 1; fill-rule: nonzero; stroke: none; fill: rgb(255, 201, 6);" d="m 5399.61,3512.11 c -27.62,-44.25 -185.17,-387.3 -187.22,-406.46 27.36,-5.5 120.68,-4.99 139.59,0.75 10.01,41.58 50.49,379.87 47.63,405.71 z m -832.46,-785.14 c 6.25,12.23 10.35,20.7 14.84,28.97 200.14,368.57 400.46,737.05 600.06,1105.91 10.22,18.88 21.61,26.03 42.96,25.02 48.01,-2.26 96.14,-1.95 144.21,-2.69 127.62,-1.97 255.23,-3.76 382.84,-6 49.81,-0.87 99.6,-2.72 149.4,-4.2 4.24,-0.13 8.47,-0.89 16.33,-1.76 -37.16,-386.65 -74.21,-772.15 -111.19,-1156.84 -26.94,-5.69 -447.65,11.64 -470.52,19.93 3.42,45.41 6.93,91.97 10.63,141.15 -9.49,0.81 -16.99,2.11 -24.47,1.99 -75.16,-1.26 -150.31,-3.03 -225.48,-3.9 -13.22,-0.16 -20.68,-4.88 -26.32,-16.62 -16.64,-34.65 -34.48,-68.73 -51.22,-103.34 -5.42,-11.19 -11.77,-17.56 -25.46,-17.89 -136.32,-3.33 -272.62,-7.29 -408.93,-10.99 -4.26,-0.12 -8.54,0.58 -17.68,1.26"/>
      <path id="path20" style="fill-opacity: 1; fill-rule: nonzero; stroke: none; fill: rgb(255, 201, 6);" d="m 3999.47,3051.14 c -2.5,-9.88 -5.17,-19.71 -7.46,-29.63 -24.61,-106.35 -49.13,-212.72 -73.73,-319.07 -5.59,-24.17 -7.55,-24.92 -33.46,-27.68 -73.79,-7.85 -147.51,-16.32 -221.26,-24.55 -51.19,-5.71 -102.37,-11.48 -153.59,-17 -4.91,-0.53 -10,0.54 -18.21,1.07 76.8,394.23 153.2,786.45 229.81,1179.76 160.64,11.71 318.82,23.25 482.2,35.16 -3.68,-14.18 -5.77,-23.93 -8.74,-33.39 -33.72,-107.49 -67.62,-214.93 -101.32,-322.44 -3.55,-11.34 -6.11,-22.99 -10.85,-41.04 15.64,6.81 25.73,10.81 35.49,15.5 142.21,68.25 250.63,173.3 332.58,306.78 14.14,23.03 26.6,47.19 38.45,71.51 5.95,12.22 12.8,20.21 27.23,19.92 6.95,-0.14 13.92,1.44 20.89,1.65 70.77,2.2 141.55,4.18 212.32,6.43 55.04,1.76 110.07,3.86 165.1,5.7 8.6,0.29 17.21,0.05 27.62,0.05 -0.88,-6.64 -0.53,-11.91 -2.31,-16.3 -77.24,-190.79 -186.09,-359.8 -342.97,-495.38 -75.41,-65.17 -159.8,-115.67 -252.91,-151.46 -7.18,-2.76 -14.21,-5.93 -23.91,-10 3.36,-12.6 5.48,-24.45 9.64,-35.53 27.03,-72.06 71.64,-132.08 130.25,-181.06 28.7,-23.99 60.96,-43.74 91.77,-65.18 7.06,-4.92 14.78,-8.89 25.13,-15.04 -70.95,-112.57 -141.07,-223.83 -213.2,-338.28 -59.29,38.32 -111.44,81.31 -159.91,129.01 -49.45,48.66 -93.05,101.99 -128.51,161.8 -34.79,58.66 -58.1,121.81 -69.22,189.74 -2.31,-0.35 -4.62,-0.7 -6.92,-1.05"/>
      <path id="path22" style="fill-opacity: 1; fill-rule: nonzero; stroke: none; fill: rgb(255, 201, 6);" d="m 2387.54,2687.29 c 267.13,-3.47 500.39,217.22 500.05,499.99 -0.34,276.38 -224.14,500.48 -500.7,500.08 -285.27,-0.41 -500.44,-234.92 -500.17,-500.68 0.27,-276.58 229.03,-503.07 500.82,-499.39 z m -757.06,488.6 c -0.21,420.69 341.18,751.52 747.03,756.68 411.27,5.24 763.14,-327.71 765.61,-754.04 2.27,-389.98 -306.45,-757.44 -755.11,-759.03 -429.37,-1.53 -757.78,345.52 -757.53,756.39"/>
      <path id="path24" style="fill-opacity: 1; fill-rule: nonzero; stroke: none; fill: rgb(255, 201, 6);" d="m 6900.62,3810.95 c -5.83,-13.16 -9.67,-22.74 -14.2,-31.97 -183.35,-373.1 -366.76,-746.18 -550.17,-1119.25 -1.54,-3.14 -3.47,-6.14 -4.6,-9.41 -5.02,-14.64 -14.7,-19.73 -30.18,-17.77 -38.09,4.81 -76.32,8.49 -114.48,12.78 -55.5,6.24 -110.99,12.61 -166.49,18.94 -47.63,5.43 -95.25,10.87 -142.9,16.31 2.84,21.5 479.07,1109.83 512.73,1171.88 54.63,-4.33 110.84,-8.89 167.06,-13.23 57.45,-4.45 114.99,-7.93 172.36,-13.24 55.97,-5.17 112.39,-6.55 170.87,-15.04"/>
      <path id="path26" style="fill-opacity: 1; fill-rule: nonzero; stroke: none; fill: rgb(250, 236, 31);" d="m 4109.56,2135.89 c -29.16,-4.51 -58.35,-8.82 -87.47,-13.57 -40.5,-6.62 -80.94,-13.55 -121.41,-20.38 -19.79,-3.34 -20.48,-3.97 -23.9,-24.65 -35.15,-212.85 -70.26,-425.71 -105.38,-638.57 -7.11,-43.09 -14.12,-86.19 -21.35,-129.26 -1,-5.98 -3.02,-11.8 -5.33,-20.61 -122.17,-6.94 -244.76,-13.9 -371.59,-21.1 13.19,130.37 30.99,257.15 45.94,384.22 14.87,126.33 31.15,252.5 47.36,383.22 -78.25,-14.53 -151.59,-28.15 -229.09,-42.54 2.21,127.67 4.39,253.07 6.62,381.52 310.72,38.36 619.72,76.51 932.7,115.15 -8.28,-107.1 -24.1,-211.05 -27.79,-318.46 7.32,6.79 14.75,13.45 21.93,20.38 122.09,117.62 261.85,206.02 424.25,257.19 75.78,23.87 153.18,34.84 232.56,29.69 39.48,-2.57 77.93,-10.41 113.65,-28.29 61.54,-30.8 94.04,-81.68 100.8,-149.27 5.21,-52.04 -2.42,-102.93 -17.6,-152.7 -23.12,-75.75 -57.81,-146.04 -100.67,-212.52 -7.77,-12.05 -16.44,-17.94 -31.58,-18.28 -134.58,-3.01 -269.15,-6.87 -403.73,-10.38 -4,-0.1 -8.03,0.95 -18.52,2.29 11.69,8.93 18.78,14.65 26.18,19.94 45.62,32.64 89.49,67.49 126.22,110.09 18.73,21.74 35.84,45.21 51,69.57 8.53,13.7 13.64,30.41 16.72,46.45 6.13,31.78 -9.46,50.63 -41.7,52.75 -11.28,0.74 -22.76,0.33 -34.01,-0.9 -10.31,-1.13 -20.41,-4.07 -34.24,-6.98 6.13,-6.06 9.76,-10.26 13.99,-13.73 26.78,-21.98 32.69,-52.99 12.47,-81.24 -10.49,-14.65 -24.1,-27.93 -38.68,-38.58 -26.07,-19.03 -54.28,-35.09 -80.96,-53.33 -36.76,-25.13 -74.26,-49.45 -108.97,-77.21 -37.38,-29.89 -66.75,-66.92 -77.77,-115.25 -8.58,-37.64 -6.02,-74.94 8.54,-110.64 16.95,-41.53 51.18,-59.81 93.67,-66.1 50.39,-7.46 99.21,1.61 147.72,13.59 67.14,16.6 131.86,40.3 195.43,67.33 7.73,3.28 15.66,6.1 25.81,10.04 1.03,-8.62 2.27,-14.35 2.31,-20.1 0.75,-92.67 0.84,-185.36 2.41,-278.02 0.29,-17.32 -5.07,-26.84 -20.06,-35.1 -117.29,-64.65 -242.51,-102.17 -376.01,-112.58 -57.7,-4.5 -115.08,-4.36 -172.49,4.73 -152.3,24.09 -253.61,122.69 -281.68,274.29 -25.12,135.66 3.41,262.1 64.43,383.06 28.86,57.21 64.85,109.82 105.59,159.22 5.44,6.6 10.67,13.38 16,20.07 -0.78,1.85 -1.55,3.7 -2.32,5.55"/>
      <path id="path28" style="fill-opacity: 1; fill-rule: nonzero; stroke: none; fill: rgb(250, 236, 31);" d="m 5421.75,1722.7 c -7.02,0.9 -11.14,2.07 -15.17,1.84 -33.09,-1.87 -66.16,-4.01 -100.77,-6.16 -65.22,-150.38 -130.15,-300.1 -196.36,-452.78 -121.41,6.11 -242.47,12.19 -363.53,18.28 1.07,19.79 447.83,1192.29 470.52,1235.04 149.56,-6.06 300.11,-12.16 454.96,-18.44 -65.35,-148.77 -128.78,-293.14 -193.82,-441.19 35.41,-2.12 66.53,-3.96 97.64,-5.87 11.23,-0.69 14.59,7.94 18.57,15.63 19.67,38.02 39.21,76.11 58.81,114.18 47.59,92.43 95.18,184.87 142.81,277.28 3.59,6.97 7.48,13.78 12.92,23.77 133.16,-15.68 267.15,-31.46 405.02,-47.69 -204.45,-403.62 -407.25,-804.01 -611.48,-1207.19 -128.52,7.92 -256.83,20.68 -389.8,30.41 4.81,11.83 8.19,21.17 12.31,30.18 61.51,134.21 123.13,268.38 184.65,402.58 4.25,9.28 7.96,18.81 12.72,30.13"/>
      <path id="path30" style="fill-opacity: 1; fill-rule: nonzero; stroke: none; fill: rgb(250, 236, 31);" d="m 1071.84,1784.97 c 131.57,48.28 261.68,96.03 395.41,145.1 30.31,-102.44 54.17,-204.57 83.52,-305.07 2.15,0.12 4.3,0.25 6.45,0.38 10.94,114.67 21.87,229.34 32.86,344.58 102.18,31.37 202.05,62.03 305.03,93.64 25.35,-107.83 50.19,-213.48 75.03,-319.12 1.7,-0.11 3.4,-0.22 5.1,-0.33 1.54,4.08 3.65,8.03 4.53,12.25 22.63,109.44 45.44,218.85 67.34,328.44 3.32,16.57 9.93,24.85 27.1,29.17 123.54,31.12 246.77,63.43 370.14,95.22 4.8,1.24 9.98,1.04 18.05,1.8 -2.79,-14.6 -4.81,-27.23 -7.64,-39.66 -78.23,-343.99 -156.73,-687.91 -234.3,-1032.04 -4.23,-18.77 -12.85,-25.3 -30.15,-29.49 -108.57,-26.27 -216.87,-53.64 -325.29,-80.53 -7.48,-1.86 -15.19,-2.8 -25.68,-4.69 -16.8,71.34 -33.27,141.27 -49.74,211.2 -1.61,-0.09 -3.23,-0.19 -4.84,-0.28 -2.25,-8.25 -4.86,-16.41 -6.7,-24.75 -14.46,-65.66 -29.11,-131.28 -42.88,-197.08 -3.52,-16.831 -10.46,-26.812 -27.96,-32.96 -93.04,-32.738 -185.53,-67.039 -278.22,-100.762 -5.67,-2.066 -11.48,-3.769 -16.97,-5.547 -12.67,16.809 -321.72,843.809 -340.19,910.529"/>
      <path id="path32" style="fill-opacity: 1; fill-rule: nonzero; stroke: none; fill: rgb(255, 201, 6);" d="m 3491.83,3367.3 c -23.57,-106.17 -47.11,-212.17 -70.83,-319.01 -52.43,0 -102.59,0 -155.4,0 -2.17,107.15 -4.31,212.45 -6.42,316.95 21.39,6.59 197.88,8.03 232.65,2.06"/>
      <path id="path34" style="fill:#ffffff;fill-opacity:1;fill-rule:nonzero;stroke:none" d="m 5852.21,1142.28 c -0.79,-18.73 -1.15,-37.49 -2.51,-56.18 -0.92,-12.72 -1.54,-12.67 -21,-12.12 2.42,37.15 4.83,74.21 7.33,112.7 9.96,0 18.18,0 28.14,0 6.86,-24.07 13.69,-47.98 22.2,-77.8 8.93,29.18 16.22,52.98 23.87,77.95 8.78,0 17.19,0 27.72,0 2.2,-37.56 4.37,-74.63 6.66,-113.54 -7.34,-0.49 -12.82,-0.85 -20.29,-1.35 -1.93,24.66 -3.74,47.77 -5.54,70.89 -1.1,0.21 -2.19,0.41 -3.28,0.62 -7.23,-22.87 -14.46,-45.73 -21.47,-67.9 -10.87,-4.91 -17.88,-3.12 -20.9,8.13 -3.85,14.31 -7.65,28.62 -11.74,42.86 -1.59,5.54 -3.89,10.88 -5.87,16.31 -1.11,-0.19 -2.21,-0.38 -3.32,-0.57"/>
      <path id="path36" style="fill:#ffffff;fill-opacity:1;fill-rule:nonzero;stroke:none" d="m 5765.99,1071.03 c 0,33.94 0,64.24 0,95.02 -9.91,1.35 -17.56,2.39 -27.03,3.68 -0.53,5.18 -1.08,10.59 -1.78,17.35 26.81,0 51.88,0 76.88,0 2.44,-17.25 2.44,-17.25 -25.03,-21.37 0,-29.83 0,-60.1 0,-92.01 -7.79,-0.9 -13.41,-1.55 -23.04,-2.67"/>
      <path id="path38" style="fill-opacity: 1; fill-rule: nonzero; stroke: none; fill: rgb(232, 35, 41);" d="m 4626.7,1968.11 c 7.17,7.47 14.3,14.99 21.51,22.42 30.6,31.54 58.1,65.44 76.86,105.49 12.75,27.22 21.22,55.59 16.01,86.27 -7.78,45.76 -36.6,72.74 -83.06,76.82 -64.71,5.68 -122.9,-13.68 -175.47,-49.81 -26.3,-18.08 -50.13,-39.78 -79.97,-63.78 54.39,0.13 101.53,16.74 149.01,3.46 4.74,-1.33 8.89,-4.75 13.12,-7.1 -0.76,-15.4 -11.7,-22.46 -21.39,-29.18 -26.54,-18.44 -54.15,-35.33 -80.77,-53.65 -39.56,-27.22 -79.43,-54.09 -117.65,-83.12 -27.95,-21.24 -50.66,-48.17 -68.72,-78.55 -39.46,-66.42 -42.04,-136.27 -14.7,-206.78 24.42,-62.97 76.1,-90.8 140.46,-98.21 58.27,-6.72 115.22,2.27 171.06,17.9 40.34,11.29 79.94,25.25 119.85,38.06 8.18,2.63 16.3,5.44 26.7,8.92 1.3,-6.52 3,-11.19 3.05,-15.88 0.67,-58.57 0.67,-117.15 1.86,-175.7 0.32,-16.02 -4.98,-25.33 -19.58,-32.71 -101.06,-51.04 -207.56,-82.31 -320.49,-91.82 -62.99,-5.3 -125.66,-6.38 -187.74,8.16 -131.35,30.75 -208.84,119.79 -224.7,254 -14.55,123.12 15.37,236.1 74.04,342.65 77.19,140.17 188.07,249.03 320.52,336.7 98.55,65.23 204.45,113.95 321.36,136.04 57.96,10.95 116.31,13.79 174.6,2.82 16.18,-3.04 32.32,-7.97 47.5,-14.34 48.71,-20.46 75.19,-58.02 80.88,-110.29 5.9,-54.25 -5.4,-106.16 -22.72,-157.02 -18.1,-53.17 -43.18,-103.05 -71.76,-151.37 -8.61,-14.56 -19.02,-21.03 -35.67,-21.11 -34.08,-0.16 -68.16,-1.45 -102.24,-2.37 -33.2,-0.9 -66.4,-1.99 -99.6,-2.85 -10.13,-0.26 -20.27,-0.04 -30.41,-0.04 -0.58,1.99 -1.16,3.98 -1.75,5.97"/>
      <path id="path40" style="fill-opacity: 1; fill-rule: nonzero; stroke: none; fill: rgb(232, 35, 41);" d="m 3430.89,1324.81 c 31.66,257.87 62.92,512.46 94.68,771.08 -11.98,-0.9 -21.95,-0.76 -31.57,-2.54 -58.42,-10.78 -116.74,-22.07 -175.14,-32.98 -8.36,-1.56 -16.93,-1.99 -29.37,-3.39 1.77,91.2 3.48,179.93 5.26,271.85 274.97,33.92 547.61,67.56 824.79,101.75 -9.12,-82.93 -17.77,-161.51 -26.7,-242.72 -84.84,-18.09 -170.55,-27.95 -256.85,-45.22 -4.83,-27.41 -9.75,-53.85 -14.13,-80.38 -37.45,-226.75 -74.49,-453.57 -112.45,-680.23 -8.11,-48.42 2.65,-43.89 -52.68,-46.65 -64.6,-3.22 -129.17,-7.08 -193.76,-10.5 -9.32,-0.49 -18.68,-0.07 -32.08,-0.07"/>
      <path id="path42" style="fill-opacity: 1; fill-rule: nonzero; stroke: none; fill: rgb(232, 35, 41);" d="m 5288.55,1305.88 c 73.05,159.55 144.18,314.9 216.67,473.24 -9.44,1.06 -15.9,2.71 -22.25,2.34 -64.59,-3.69 -129.14,-8.2 -193.76,-11.32 -16.56,-0.8 -22.13,-10.45 -27.6,-23.14 -42.92,-99.56 -86.12,-198.99 -129.23,-298.47 -15.99,-36.9 -32.36,-73.65 -47.71,-110.82 -5.36,-13 -12.3,-19.11 -27.29,-18.24 -75.93,4.43 -151.93,7.91 -227.89,11.88 -3.26,0.17 -6.43,1.85 -12.22,3.61 2.7,8.85 4.66,17.02 7.64,24.8 137.87,360.07 275.83,720.1 413.81,1080.12 9.93,25.9 10.08,26.01 37.76,24.94 99.6,-3.85 199.2,-7.79 298.8,-11.76 4.3,-0.17 8.57,-0.85 16.99,-1.72 -19.58,-50.26 -42.09,-97.2 -62.65,-144.91 -21.11,-48.98 -42.94,-97.65 -64.43,-146.46 -21.04,-47.81 -42.05,-95.64 -64.55,-146.8 18.46,-1.74 32.92,-3.57 47.44,-4.38 48.02,-2.67 96.12,-4.15 144.05,-7.84 18.84,-1.45 27.96,5.66 36.17,21.79 61.44,120.79 123.76,241.14 185.81,361.63 4.8,9.33 10.18,18.42 14.24,28.06 5.26,12.49 13.93,16.4 27.01,14.72 31.2,-4.01 62.51,-7.24 93.75,-10.93 59.81,-7.07 119.61,-14.25 179.48,-21.39 -3.65,-22.04 -514.74,-1037.39 -559.37,-1111.73 -90.77,7.36 -183.29,14.87 -280.67,22.78"/>
      <path id="path44" style="fill-opacity: 1; fill-rule: nonzero; stroke: none; fill: rgb(250, 236, 31);" d="m 2814.67,1780.6 c -20.54,-33.04 -59.1,-175.41 -56.75,-194.99 25.12,6.34 49.96,12.61 76.35,19.27 -6.74,60.48 -13.17,118.1 -19.6,175.72 z m 479.5,-515.94 c -133.18,-12.88 -263.2,-25.45 -395.01,-38.2 -10.18,44.83 -19.97,87.99 -30.13,132.78 -9.03,-0.96 -16.71,-1.07 -24.06,-2.67 -54.6,-11.84 -109.03,-24.47 -163.75,-35.69 -13.9,-2.85 -21.06,-9.52 -25.45,-22.39 -10.72,-31.41 -22.65,-62.4 -33.42,-93.8 -4.15,-12.11 -11.3,-18.11 -24.08,-20.35 -107.51,-18.79 -214.92,-38.12 -322.39,-57.11 -4.99,-0.89 -10.27,-0.12 -19.2,-0.12 2.44,11.4 4.05,22.05 7.03,32.3 41.62,143.43 83.42,286.81 125.19,430.2 60.58,207.95 121.17,415.9 181.78,623.84 2.44,8.36 5.1,16.66 8.23,26.84 184.31,37.42 368.81,74.88 557.2,113.13 52.75,-363.33 105.22,-724.81 158.06,-1088.76"/>
      <path id="path46" style="fill-opacity: 1; fill-rule: nonzero; stroke: none; fill: rgb(232, 35, 41);" d="m 2394.43,2141.87 c -5.18,-24.38 -9.08,-43.91 -13.49,-63.31 -67.65,-297.49 -135.53,-594.92 -202.71,-892.51 -4.37,-19.36 -12.04,-29.49 -32.42,-34.2 -80.03,-18.49 -159.6,-38.99 -239.36,-58.65 -8.28,-2.04 -16.7,-3.5 -28.33,-5.9 -31.98,128.67 -58.74,256.61 -93.69,383.88 -2.02,-6.19 -4.59,-12.25 -5.99,-18.58 -29.43,-133.15 -59.02,-266.27 -87.71,-399.57 -3.71,-17.26 -10.69,-27 -28.02,-33.01 -66.05,-22.918 -131.5,-47.551 -197.23,-71.418 -8,-2.911 -16.27,-5.063 -27.51,-8.512 -100.45,271.18 -200.23,540.56 -301.29,813.41 98.54,37.21 195.64,72.49 296.28,108.88 48.06,-178.88 95.24,-354.51 142.42,-530.14 1.91,0.15 3.82,0.3 5.73,0.46 2.77,26.61 5.75,53.2 8.27,79.84 12.02,127.06 23.9,254.13 35.85,381.2 3.76,40.03 7.79,80.04 11.18,120.11 0.9,10.58 3.58,17.83 15.06,21.27 66.13,19.81 132.09,40.21 198.14,60.29 1.46,0.45 3.34,-0.46 8.99,-1.39 38.23,-163.25 76.8,-328 116.65,-498.23 3.97,9.74 6.8,14.48 7.85,19.59 35.24,171.24 70.15,342.56 105.51,513.78 9.38,45.46 2.85,35.41 44.23,46.35 76.89,20.32 153.98,39.88 231.01,59.67 8.32,2.14 16.79,3.7 30.58,6.69"/>
      <path id="path48" style="fill-opacity: 1; fill-rule: nonzero; stroke: none; fill: rgb(232, 35, 41);" d="m 2836.96,2047.98 c -21.14,-36.39 -154.93,-513.38 -154.13,-534.12 69.14,17.65 138.42,33.01 207.46,53.28 -18.02,162.44 -35.67,321.64 -53.33,480.84 z m 253.35,242.35 c 11.76,-37.81 142.95,-957.33 139.39,-979.76 -95.36,-9.25 -191.45,-18.58 -289.86,-28.13 -10.78,47.18 -21.02,91.99 -31.74,138.89 -10.16,-1.35 -18.68,-1.88 -26.92,-3.68 -77.68,-16.91 -155.23,-34.41 -233.01,-50.83 -17.06,-3.6 -27.53,-10.67 -32.97,-28.19 -9.32,-30.01 -21.39,-59.16 -31.7,-88.88 -3.84,-11.1 -10.16,-17.07 -22.08,-19.11 -72.33,-12.35 -144.57,-25.26 -216.85,-37.93 -4.15,-0.73 -8.38,-1.01 -16.91,-2 3.27,12.91 5.62,23.56 8.66,34 89.58,307.95 179.07,615.93 269.01,923.78 17.03,58.29 3.77,45.22 62.44,57.44 133.41,27.79 267.09,54.31 400.68,81.27 6.7,1.35 13.54,1.96 21.86,3.13"/>
      <path id="path50" style="fill-opacity: 1; fill-rule: nonzero; stroke: none; fill: rgb(136, 133, 192);" d="m 2014.7,3348.04 c -2.17,-13.82 -3.42,-21.46 -4.56,-29.11 -9.78,-65.25 20.07,-118.41 82.11,-141.05 24.33,-8.87 50.65,-12.34 76.13,-18 65.27,-14.49 114.7,-47.67 130.63,-116.4 8.15,-35.18 6.8,-71.28 -5.18,-105.97 -17.85,-51.72 -59.09,-69.29 -117.36,-66.56 -34.39,1.61 -63.49,17.03 -89.14,39.71 -64.19,56.79 -100.58,127.99 -113.75,212.38 -11.6,74.36 4.18,143.96 32.23,211.96 1.19,2.89 3.54,5.29 8.89,13.04"/>
      <path id="path52" style="fill-opacity: 1; fill-rule: nonzero; stroke: none; fill: rgb(48, 182, 233);" d="m 2212,2821.41 c 30.2,5.07 54.51,7.74 78.1,13.41 40.76,9.81 65.15,37.59 71.64,78.01 4.38,27.3 2.87,55.56 3.68,83.4 0.4,13.78 0.07,27.57 0.07,41.11 77.11,13 145.39,45.61 219.46,64.32 38.52,-30.44 54.73,-72.76 57.71,-120.52 4.61,-73.8 -31.24,-132.96 -97.62,-165.3 -32.57,-15.86 -67.04,-25.62 -102.84,-28.92 -66.5,-6.13 -132.72,-5.91 -196.32,19 -10.22,4.01 -20.01,9.11 -33.88,15.49"/>
      <path id="path54" style="fill-opacity: 1; fill-rule: nonzero; stroke: none; fill: rgb(106, 188, 80);" d="m 2690.34,2923.25 c 22.57,73.09 16.95,139.03 -44.1,195.31 8.92,3.85 15.51,7.3 22.49,9.6 28.17,9.3 56.57,17.9 84.64,27.44 18.84,6.41 19.84,9 16.86,29.01 -2.96,19.85 -5.63,39.75 -8.9,59.54 -1.24,7.54 -3.77,14.86 -6.38,24.81 -33.95,1.05 -66.96,2.52 -99.99,2.98 -53.32,0.75 -106.66,0.89 -159.99,1.19 -33.98,0.18 -34.04,0.08 -39.91,32.8 -7.44,41.5 0.56,79.93 23.88,114.98 22.23,33.4 53.3,51.72 93.61,54.67 85.45,6.25 142.56,-37.36 184.62,-105.81 27.3,-44.44 35.71,-94.97 36.76,-145.86 1.52,-73.05 -8.48,-144.68 -39.5,-212.01 -15.43,-33.49 -35.19,-63.94 -64.09,-88.65"/>
      <path id="path56" style="fill:#ffffff;fill-opacity:1;fill-rule:nonzero;stroke:none" d="m 2127.44,3562.48 c 13.54,8.12 23.86,14.31 36.99,22.18 80.98,-101.08 161.29,-201.32 245.91,-306.94 -63.03,6.26 -105.73,-17.38 -138.96,-69.18 -48.95,120.36 -95.99,236.05 -143.94,353.94"/>
      <path id="path58" style="fill-opacity: 1; fill-rule: nonzero; stroke: none; fill: rgb(220, 132, 181);" d="m 2392.2,3357.31 c -53.34,66.61 -106.68,133.22 -160.24,200.09 90.51,50.19 252.88,44.85 351.91,-21.85 -52.35,6.59 -100.42,-0.41 -139.46,-39.36 -38.37,-38.29 -41.99,-88.35 -46.97,-138.14 -1.75,-0.25 -3.49,-0.5 -5.24,-0.74"/>
      <path id="path60" style="fill-opacity: 1; fill-rule: nonzero; stroke: none; fill: rgb(220, 132, 181);" d="m 2227.55,3220.95 c -39,-2.48 -71.06,4.84 -100.82,20.44 -32.01,16.79 -47.07,46.33 -52.08,80.55 -8.39,57.25 3.96,109.32 45.84,156.26 16.5,-26.22 24.29,-55.09 35.84,-82.09 12.36,-28.89 23.9,-58.13 35.72,-87.25 11.43,-28.16 22.76,-56.36 35.5,-87.91"/>
      <path id="path62" style="fill:#ffffff;fill-opacity:1;fill-rule:nonzero;stroke:none" d="m 2378.9,3082.23 c -45.65,0.38 -80.82,35.8 -80.9,81.47 -0.09,45.5 35.52,81.4 80.88,81.55 46,0.15 83.04,-37.18 82.55,-83.2 -0.47,-45.23 -36.63,-80.2 -82.53,-79.82"/>
      <path id="path64" style="fill:#ffffff;fill-opacity:1;fill-rule:nonzero;stroke:none" d="m 2490.61,3109.35 c 10.69,72.19 9.75,59.23 -13.91,124.09 82.03,0 163.72,0 247.94,0 2.25,-15.62 4.31,-29.9 6.64,-46.06 -80.98,-26.25 -160.24,-51.95 -240.67,-78.03"/>
    </g>
  </g>
</svg>